<svg width="114" height="33" viewBox="0 0 114 33" fill="none" xmlns="http://www.w3.org/2000/svg">
<g clip-path="url(#clip0_1468_4633)">
<path fill-rule="evenodd" clip-rule="evenodd" d="M113.209 17.7871V19.0076C113.209 19.2518 113.089 19.2518 112.967 19.2518H111.268V26.0869C111.268 26.331 111.148 26.331 111.026 26.331H109.57C109.449 26.331 109.327 26.331 109.327 26.0869V19.2518H107.629C107.507 19.2518 107.386 19.2518 107.386 19.0076V17.7871C107.386 17.543 107.507 17.543 107.629 17.543H112.967C113.089 17.543 113.209 17.543 113.209 17.7871Z" fill="black"/>
<path fill-rule="evenodd" clip-rule="evenodd" d="M54.9338 13.2889C54.9338 13.3769 55.0015 13.449 55.089 13.457C59.4287 13.8118 62.8402 17.4655 62.8402 21.9222C62.8402 22.98 62.6466 23.9911 62.2953 24.9249C62.2661 25.0023 62.2953 25.089 62.3682 25.1303L63.9513 26.0507C64.0402 26.1014 64.1555 26.0641 64.194 25.9694C64.7058 24.7208 64.9895 23.3548 64.9895 21.9222C64.9895 16.2889 60.622 11.6615 55.1155 11.2893H55.1062H55.1022C55.0107 11.2893 54.9338 11.368 54.9338 11.4614V13.2902V13.2889Z" fill="#C9001A"/>
<path fill-rule="evenodd" clip-rule="evenodd" d="M46.4228 25.1304C46.4944 25.0891 46.5249 25.0024 46.4958 24.925C46.1444 23.9912 45.9508 22.9801 45.9508 21.9223C45.9508 17.4656 49.3624 13.8119 53.7021 13.4571C53.7896 13.4504 53.8572 13.3784 53.8572 13.289V11.4602C53.8572 11.3655 53.7816 11.2894 53.6888 11.2881H53.6755C48.169 11.6616 43.8015 16.2877 43.8015 21.921C43.8015 23.3536 44.0853 24.7196 44.5971 25.9681C44.6368 26.0629 44.7509 26.1015 44.8397 26.0495L46.4228 25.1291V25.1304Z" fill="#C9001A"/>
<path fill-rule="evenodd" clip-rule="evenodd" d="M61.9272 26.1241C61.8463 26.0775 61.7455 26.1068 61.6978 26.1868C60.2353 28.7173 57.5132 30.4181 54.3947 30.4181C51.2762 30.4181 48.5541 28.7173 47.0916 26.1868C47.0452 26.1055 46.9431 26.0775 46.8635 26.1241L45.299 27.0326C45.2181 27.0793 45.1889 27.186 45.2367 27.2673C47.073 30.4408 50.4899 32.5791 54.396 32.5791C58.3021 32.5791 61.719 30.4408 63.5554 27.266C63.6031 27.1846 63.5739 27.0793 63.4931 27.0312L61.9285 26.1228L61.9272 26.1241Z" fill="#C9001A"/>
<path fill-rule="evenodd" clip-rule="evenodd" d="M54.8542 30.0272V22.0409C54.8542 21.9595 54.8927 21.8822 54.9563 21.8328C57.1454 20.124 58.6715 18.2872 58.641 15.2218C58.641 15.1137 58.7922 15.0951 58.8147 15.2004L60.1512 21.4593C60.1844 21.6167 60.1565 21.7795 60.0717 21.9155L55.0372 30.0779C54.9842 30.1633 54.8542 30.1259 54.8542 30.0259" fill="#C9001A"/>
<path fill-rule="evenodd" clip-rule="evenodd" d="M53.8384 30.0272V22.0409C53.8384 21.9595 53.8 21.8822 53.7364 21.8328C51.5473 20.124 50.0212 18.2872 50.0517 15.2218C50.0517 15.1137 49.9005 15.0951 49.878 15.2004L48.5415 21.4593C48.5083 21.6167 48.5361 21.7795 48.6197 21.9155L53.6541 30.0779C53.7072 30.1633 53.8371 30.1259 53.8371 30.0259" fill="#C9001A"/>
<path fill-rule="evenodd" clip-rule="evenodd" d="M47.2293 22.9561C47.3658 23.0414 47.1391 23.2429 47.0012 23.2415C47.0052 23.0734 47.1749 23.0734 47.2293 22.9561Z" fill="#C9001A"/>
<path fill-rule="evenodd" clip-rule="evenodd" d="M56.6742 12.3085C57.1833 12.1164 56.8943 13.1449 56.5032 12.8808C56.2459 12.7073 56.5721 12.3472 56.6742 12.3085Z" fill="#C9001A"/>
<path fill-rule="evenodd" clip-rule="evenodd" d="M52.807 13.5118C53.1424 13.2397 53.0417 14.1881 52.75 14.0267C52.5405 13.912 52.7698 13.5411 52.807 13.5118Z" fill="#C9001A"/>
<path fill-rule="evenodd" clip-rule="evenodd" d="M57.131 13.7971C57.3803 13.7771 57.8523 13.8291 57.6428 14.4267C57.5301 14.7495 57.3922 14.5254 57.131 14.7709C56.9945 14.8989 56.9401 15.1364 56.6762 15.1137C55.829 15.0416 56.4256 13.8518 57.131 13.7971Z" fill="#C9001A"/>
<path fill-rule="evenodd" clip-rule="evenodd" d="M59.1778 14.0838C59.4284 13.9037 59.2123 14.5774 59.0638 14.428C58.8994 14.2626 59.1274 14.1212 59.1778 14.0838Z" fill="#C9001A"/>
<path fill-rule="evenodd" clip-rule="evenodd" d="M56.6182 15.2284C56.9192 15.0723 56.7998 15.5592 56.5612 15.4565C56.4034 15.3898 56.5585 15.2577 56.6182 15.2284Z" fill="#C9001A"/>
<path fill-rule="evenodd" clip-rule="evenodd" d="M54.9113 15.4005C55.1513 15.1591 55.04 15.662 54.9113 15.63C54.7788 15.5966 54.8464 15.4659 54.9113 15.4005Z" fill="#C9001A"/>
<path fill-rule="evenodd" clip-rule="evenodd" d="M51.2673 16.2022C51.4781 15.9901 51.3508 16.5157 51.2103 16.3743C51.1453 16.309 51.258 16.2116 51.2673 16.2022Z" fill="#C9001A"/>
<path fill-rule="evenodd" clip-rule="evenodd" d="M47.74 17.9189C48.0702 17.7241 47.7201 18.4912 47.569 18.3191C47.3727 18.0976 47.6751 17.9562 47.74 17.9189Z" fill="#C9001A"/>
<path fill-rule="evenodd" clip-rule="evenodd" d="M62.8193 18.0338C63.0712 17.8604 62.8365 18.394 62.7053 18.2632C62.6005 18.1579 62.7503 18.0818 62.8193 18.0338Z" fill="#C9001A"/>
<path fill-rule="evenodd" clip-rule="evenodd" d="M52.0594 27.5969C52.3683 27.3688 52.1323 28.1865 51.9454 27.9971C51.7969 27.8477 52.0554 27.5996 52.0594 27.5969Z" fill="#C9001A"/>
<path fill-rule="evenodd" clip-rule="evenodd" d="M51.7222 18.3193C52.2725 17.9031 52.0709 19.1797 51.6652 18.8916C51.4517 18.7409 51.648 18.3754 51.7222 18.3193Z" fill="#C9001A"/>
<path fill-rule="evenodd" clip-rule="evenodd" d="M50.6998 18.434C51.2925 18.2939 50.835 19.4425 50.4731 19.1784C50.1708 18.9596 50.5354 18.4727 50.6998 18.434Z" fill="#C9001A"/>
<path fill-rule="evenodd" clip-rule="evenodd" d="M53.7143 18.4339C54.128 18.1351 54.0471 19.0688 53.6573 18.8341C53.485 18.73 53.6255 18.4966 53.7143 18.4339Z" fill="#C9001A"/>
<path fill-rule="evenodd" clip-rule="evenodd" d="M50.2442 18.4338C50.3476 18.5792 50.04 18.798 49.9021 18.8914C49.9286 18.6499 50.1713 18.6273 50.2442 18.4338Z" fill="#C9001A"/>
<path fill-rule="evenodd" clip-rule="evenodd" d="M50.8094 27.8835C51.7202 27.6541 51.1726 29.4843 50.4673 29.028C50.047 28.7559 50.5707 27.9435 50.8094 27.8835Z" fill="#C9001A"/>
<path fill-rule="evenodd" clip-rule="evenodd" d="M48.6488 19.3504C48.601 19.3397 48.4486 19.381 48.4207 19.4064C47.9527 19.8372 47.7697 20.4789 47.3388 21.1805C46.9012 21.8942 46.2674 22.6732 45.7861 23.1548C45.7888 23.1908 45.7914 23.2255 45.7928 23.2615C46.0646 22.9053 46.6016 22.5211 46.827 22.2103C47.1359 21.7875 47.4435 21.2872 47.7949 20.8364C48.0256 20.5402 48.8291 19.3864 48.6488 19.349" fill="#C9001A"/>
<path fill-rule="evenodd" clip-rule="evenodd" d="M57.1283 19.3503C57.1283 19.3503 57.123 19.2943 57.1283 19.2929C57.4969 19.2102 56.8379 19.6424 57.1283 19.3503Z" fill="#C9001A"/>
<path fill-rule="evenodd" clip-rule="evenodd" d="M62.9335 20.7815C63.1536 20.6562 62.8208 21.2524 62.7624 21.1817C62.663 21.063 62.8088 20.8536 62.9335 20.7815Z" fill="#C9001A"/>
<path fill-rule="evenodd" clip-rule="evenodd" d="M62.3618 21.3538C62.5899 21.1164 62.4547 21.734 62.3048 21.5833C62.2558 21.5326 62.3499 21.3658 62.3618 21.3538Z" fill="#C9001A"/>
<path fill-rule="evenodd" clip-rule="evenodd" d="M48.5366 21.5835C48.652 21.6475 48.4412 21.865 48.3086 21.869C48.3126 21.7009 48.4823 21.7009 48.5366 21.5835Z" fill="#C9001A"/>
<path fill-rule="evenodd" clip-rule="evenodd" d="M57.0713 21.9835C57.0713 21.8728 57.3564 21.9248 57.2423 22.0409C57.1893 22.0942 57.0713 22.0129 57.0713 21.9835Z" fill="#C9001A"/>
<path fill-rule="evenodd" clip-rule="evenodd" d="M60.1465 21.9263C60.2738 21.9676 60.1743 22.2531 60.0325 22.2131C60.0908 22.1384 60.0882 22.0023 60.1465 21.9263Z" fill="#C9001A"/>
<path fill-rule="evenodd" clip-rule="evenodd" d="M48.0831 22.1555C47.9253 22.4383 47.5939 22.5744 47.6283 22.8999C47.3592 22.5824 47.8352 22.3023 48.0831 22.1555Z" fill="#C9001A"/>
<path fill-rule="evenodd" clip-rule="evenodd" d="M51.4383 22.2691C51.6782 22.081 51.4661 22.6399 51.3242 22.4985C51.2738 22.4478 51.3799 22.3158 51.4383 22.2691Z" fill="#C9001A"/>
<path fill-rule="evenodd" clip-rule="evenodd" d="M59.349 23.6429C59.4086 23.2747 59.2164 23.4255 59.0652 23.2414C58.7099 22.8145 59.3808 22.3356 59.6341 22.6691C59.8449 22.9466 59.4551 23.2454 59.349 23.6429Z" fill="#C9001A"/>
<path fill-rule="evenodd" clip-rule="evenodd" d="M61.9663 24.1579C62.498 23.9178 62.4145 24.9663 62.1374 25.0744C61.6826 25.2518 61.5487 24.3487 61.9663 24.1579Z" fill="#C9001A"/>
<path fill-rule="evenodd" clip-rule="evenodd" d="M50.3603 24.2727C50.3033 24.5582 49.9984 24.5955 49.7915 24.7302C49.7703 24.3647 50.2105 24.4648 50.3603 24.2727Z" fill="#C9001A"/>
<path fill-rule="evenodd" clip-rule="evenodd" d="M54.6833 24.7888C54.7099 24.9689 54.5309 24.9395 54.5123 25.0742C54.3134 25.0449 54.4593 24.7301 54.6833 24.7888Z" fill="#C9001A"/>
<path fill-rule="evenodd" clip-rule="evenodd" d="M53.4869 25.2462C53.768 25.1634 53.6394 25.7611 53.3729 25.7037C53.2801 25.6837 53.3092 25.2982 53.4869 25.2462Z" fill="#C9001A"/>
<path fill-rule="evenodd" clip-rule="evenodd" d="M58.6665 26.6205C58.4441 26.8459 58.8243 26.4604 58.6665 26.6205V26.6205Z" fill="black"/>
<path fill-rule="evenodd" clip-rule="evenodd" d="M52.5198 19.8654C52.5688 19.9214 52.4575 20.9886 52.008 20.8392C51.7097 20.7391 51.939 19.7747 52.5198 19.8654Z" fill="#C9001A"/>
<path fill-rule="evenodd" clip-rule="evenodd" d="M13.9834 17.5456H9.13327C9.01261 17.5456 8.89062 17.5456 8.89062 17.7897V26.0856C8.89062 26.3297 9.01261 26.3297 9.13327 26.3297H13.9834C14.1054 26.3297 14.2261 26.3297 14.2261 26.0856V24.865C14.2261 24.6209 14.1054 24.6209 13.9834 24.6209H10.8304V22.7907H13.8614C13.9821 22.7907 14.1041 22.7907 14.1041 22.5466V21.326C14.1041 21.0819 13.9821 21.0819 13.8614 21.0819H10.8304V19.2518H13.9834C14.1054 19.2518 14.2261 19.2518 14.2261 19.0076V17.7871C14.2261 17.543 14.1054 17.543 13.9834 17.543" fill="black"/>
<path fill-rule="evenodd" clip-rule="evenodd" d="M22.0004 17.5457H20.6055C20.4239 17.5457 20.3271 17.5457 20.2899 17.7898L19.1497 24.6209H18.907L17.7787 17.7898C17.7429 17.5457 17.6328 17.5457 17.4512 17.5457H16.0563C15.8747 17.5457 15.7646 17.5457 15.8137 17.7898L17.1833 26.0856C17.2205 26.3297 17.3292 26.3297 17.5108 26.3297H20.5551C20.7368 26.3297 20.8336 26.3297 20.8707 26.0856L22.2536 17.7898C22.2894 17.5457 22.1807 17.5457 21.999 17.5457" fill="black"/>
<path fill-rule="evenodd" clip-rule="evenodd" d="M25.6621 17.5457H24.2063C24.0856 17.5457 23.9636 17.5457 23.9636 17.7898V26.0856C23.9636 26.3297 24.0856 26.3297 24.2063 26.3297H25.6621C25.7828 26.3297 25.9047 26.3297 25.9047 26.0856V17.7898C25.9047 17.5457 25.7828 17.5457 25.6621 17.5457Z" fill="black"/>
<path fill-rule="evenodd" clip-rule="evenodd" d="M33.1832 24.6209H30.0302V17.7898C30.0302 17.5457 29.9083 17.5457 29.7876 17.5457H28.3318C28.2111 17.5457 28.0891 17.5457 28.0891 17.7898V26.0856C28.0891 26.3297 28.2111 26.3297 28.3318 26.3297H33.1819C33.3026 26.3297 33.4246 26.3297 33.4246 26.0856V24.865C33.4246 24.6209 33.3026 24.6209 33.1819 24.6209" fill="black"/>
<path fill-rule="evenodd" clip-rule="evenodd" d="M39.9721 20.0735V19.009C39.9721 17.5457 39.0029 17.5457 37.7897 17.5457H36.3338C35.1219 17.5457 34.1514 17.5457 34.1514 19.009V20.4723C34.1514 22.0584 34.394 22.1438 36.3338 22.632L37.7897 22.9975C38.0323 23.0588 38.0323 23.1562 38.0323 23.4003V24.3768C38.0323 24.6209 37.9103 24.6209 37.7897 24.6209H36.3338C36.2132 24.6209 36.0912 24.6209 36.0912 24.3768V23.2216L34.1514 23.7445V24.865C34.1514 26.3283 35.1206 26.3283 36.3338 26.3283H37.7897C39.0029 26.3283 39.9721 26.3283 39.9721 24.865V23.4017C39.9721 21.8156 39.7295 21.7302 37.7897 21.242L36.3338 20.8765C36.0912 20.8152 36.0912 20.7178 36.0912 20.4737V19.4985C36.0912 19.2544 36.2132 19.2544 36.3338 19.2544H37.7897C37.9103 19.2544 38.0323 19.2544 38.0323 19.4985V20.5977L39.9721 20.0748V20.0735Z" fill="black"/>
<path fill-rule="evenodd" clip-rule="evenodd" d="M4.64478 17.5457H0.0292969L1.00649 19.2544V26.0842C1.00649 26.3283 1.12847 26.3283 1.24913 26.3283H4.64478C5.85798 26.3283 6.82722 26.3283 6.82722 24.865V19.009C6.82722 17.5457 5.85665 17.5457 4.64478 17.5457ZM4.88609 24.3768C4.88609 24.6209 4.76543 24.6209 4.64345 24.6209H2.94629V19.2531H4.64345C4.76543 19.2531 4.88609 19.2531 4.88609 19.4972V24.3768Z" fill="black"/>
<path fill-rule="evenodd" clip-rule="evenodd" d="M92.377 23.4764V24.3768C92.377 24.6209 92.255 24.6209 92.1344 24.6209H90.6785C90.5579 24.6209 90.4359 24.6209 90.4359 24.3768V19.4972C90.4359 19.2531 90.5565 19.2531 90.6785 19.2531H92.1344C92.255 19.2531 92.377 19.2531 92.377 19.4972V20.9459L94.3168 20.423V19.009C94.3168 17.5457 93.3463 17.5457 92.1344 17.5457H90.6785C89.4653 17.5457 88.4961 17.5457 88.4961 19.009V24.865C88.4961 26.3297 89.4653 26.3297 90.6785 26.3297H92.1344C93.3463 26.3297 94.3168 26.3297 94.3168 24.865V22.9535L92.377 23.4764Z" fill="black"/>
<path fill-rule="evenodd" clip-rule="evenodd" d="M72.8546 23.4764V24.3768C72.8546 24.6209 72.7326 24.6209 72.612 24.6209H71.1574C71.0355 24.6209 70.9148 24.6209 70.9148 24.3768V19.4972C70.9148 19.2531 71.0355 19.2531 71.1574 19.2531H72.6133C72.7339 19.2531 72.8559 19.2531 72.8559 19.4972V20.9459L74.7957 20.423V19.009C74.7957 17.5457 73.8252 17.5457 72.6133 17.5457H71.1588C69.9456 17.5457 68.9763 17.5457 68.9763 19.009V24.865C68.9763 26.3297 69.9469 26.3297 71.1588 26.3297H72.6146C73.8265 26.3297 74.797 26.3297 74.797 24.865V22.9535L72.8572 23.4764H72.8546Z" fill="black"/>
<path fill-rule="evenodd" clip-rule="evenodd" d="M78.4907 26.0843C78.4907 26.3285 78.3687 26.3285 78.248 26.3285H76.7922C76.6715 26.3285 76.5496 26.3285 76.5496 26.0843V17.7885C76.5496 17.5444 76.6715 17.5444 76.7922 17.5444H78.248C78.3687 17.5444 78.4907 17.5444 78.4907 17.7885V26.0843Z" fill="black"/>
<path fill-rule="evenodd" clip-rule="evenodd" d="M102.136 17.7885V24.8638C102.136 26.3285 101.166 26.3285 99.9525 26.3285H98.498C97.2848 26.3285 96.3142 26.3285 96.3142 24.8638V17.7885C96.3142 17.5444 96.4362 17.5444 96.5569 17.5444H98.0127C98.1334 17.5444 98.2553 17.5444 98.2553 17.7885V24.3756C98.2553 24.6197 98.376 24.6197 98.498 24.6197H99.9525C100.074 24.6197 100.195 24.6197 100.195 24.3756V17.7885C100.195 17.5444 100.316 17.5444 100.438 17.5444H101.894C102.014 17.5444 102.136 17.5444 102.136 17.7885Z" fill="black"/>
<path fill-rule="evenodd" clip-rule="evenodd" d="M106.204 26.0843C106.204 26.3285 106.082 26.3285 105.961 26.3285H104.505C104.385 26.3285 104.263 26.3285 104.263 26.0843V17.7885C104.263 17.5444 104.383 17.5444 104.505 17.5444H105.961C106.082 17.5444 106.204 17.5444 106.204 17.7885V26.0843Z" fill="black"/>
<path fill-rule="evenodd" clip-rule="evenodd" d="M86.5892 26.0842L85.7048 23.4003C86.1901 23.2416 86.4924 22.8761 86.4924 22.0584V19.009C86.4924 17.5457 85.5218 17.5457 84.3099 17.5457H80.9143C80.7936 17.5457 80.6716 17.5457 80.6716 17.7898V26.0856C80.6716 26.3297 80.7936 26.3297 80.9143 26.3297H82.3701C82.4908 26.3297 82.6128 26.3297 82.6128 26.0856V19.2544H84.3099C84.4319 19.2544 84.5526 19.2544 84.5526 19.4985V21.5728C84.5526 21.8169 84.4319 21.8169 84.3099 21.8169H83.1365L84.5526 26.0869C84.6255 26.331 84.7342 26.331 84.9159 26.331H86.3704C86.491 26.331 86.674 26.331 86.5892 26.0869" fill="black"/>
<path fill-rule="evenodd" clip-rule="evenodd" d="M11.8822 0.497803C10.7698 1.49159 9.5022 2.23193 8.1458 2.82954L12.9748 6.31113L12.7029 6.44319L10.7035 5.10525C10.0525 4.67038 8.43618 4.97185 8.11133 5.52544L11.8292 8.14397C12.8581 7.14752 14.1177 6.35649 15.5841 5.75621L10.6995 2.33198L10.9594 2.12788L12.5412 3.26707C13.3301 3.83533 13.9572 3.98473 15.6571 3.14435L11.8822 0.497803Z" fill="black"/>
<path d="M19.4568 2.40796H21.5703L22.1921 4.62898H22.2027L22.8259 2.40796H24.9381V6.22971H23.5751V3.50046H23.5644L22.7662 6.22971H21.6286L20.8304 3.50046H20.8185V6.22971H19.4568V2.40796Z" fill="black"/>
<path d="M27.671 3.56449H27.6604L27.2136 4.85975H28.1178L27.671 3.56449ZM26.7455 2.40796H28.5859L30.2048 6.22971H28.6084L28.4493 5.79084H26.8848L26.7243 6.22971H25.1279L26.7455 2.40796Z" fill="black"/>
<path d="M35.376 2.40796H36.8769V4.72102C36.8769 5.21324 37.158 5.36798 37.6486 5.36798C38.1392 5.36798 38.4203 5.21324 38.4203 4.72102V2.40796H39.9212V4.77971C39.9212 5.99494 39.1919 6.36444 37.6486 6.36444C36.1052 6.36444 35.376 5.99494 35.376 4.77971V2.40796Z" fill="black"/>
<path d="M41.6145 3.3724H40.2263V2.40796H44.505V3.3724H43.1155V6.22971H41.6145V3.3724Z" fill="black"/>
<path d="M46.3203 2.40796H44.8193V6.22971H46.3203V2.40796Z" fill="black"/>
<path d="M31.8579 3.37229H32.9013C33.1519 3.37229 33.3376 3.44165 33.3376 3.73112C33.3376 3.97123 33.2156 4.08995 32.9226 4.08995H31.8579V3.37229ZM35.2933 6.2296L34.0164 5.03438C35.0679 4.86764 34.934 3.8285 34.934 3.47367C34.934 3.05614 34.7006 2.68664 34.4182 2.54791C34.21 2.44653 33.9501 2.40918 33.5179 2.40918H30.3569V6.23093H31.8579V5.05306H32.1191L33.3747 6.23093H35.2933V6.2296Z" fill="black"/>
<path d="M51.2112 4.60773C50.4767 4.49568 50.173 4.06748 50.173 3.53257C50.173 2.54145 51.137 2.27466 52.3701 2.27466C54.0619 2.27466 54.7594 2.71886 54.8124 3.52723H53.0675C53.0675 3.37249 52.9773 3.27512 52.8381 3.22176C52.7055 3.16307 52.5358 3.14172 52.3701 3.14172C51.9232 3.14172 51.7694 3.25377 51.7694 3.41518C51.7694 3.5219 51.8172 3.59126 51.967 3.6126L53.7596 3.88073C54.5154 3.99278 54.9848 4.34627 54.9848 4.99457C54.9848 5.92567 54.229 6.36453 52.5424 6.36453C51.3876 6.36453 50.1266 6.20446 50.1213 5.07994H51.9312C51.9365 5.20934 51.9842 5.29471 52.0903 5.3534C52.2017 5.40676 52.3674 5.43344 52.6008 5.43344C53.0688 5.43344 53.1961 5.30538 53.1961 5.12263C53.1961 5.00924 53.1272 4.89853 52.9243 4.86518L51.2112 4.60773Z" fill="black"/>
<path d="M55.3982 2.40796H56.8991V4.72102C56.8991 5.21324 57.1815 5.36798 57.6708 5.36798C58.1601 5.36798 58.4425 5.21324 58.4425 4.72102V2.40796H59.9434V4.77971C59.9434 5.99494 59.2142 6.36444 57.6708 6.36444C56.1274 6.36444 55.3982 5.99494 55.3982 4.77971V2.40796Z" fill="black"/>
<path d="M60.3472 5.42134L62.6237 3.3724H60.501V2.40796H64.6444V3.24301L62.4209 5.2666H64.5874V6.22971H60.3472V5.42134Z" fill="black"/>
<path d="M65.0515 2.40796H66.5524V4.72102C66.5524 5.21324 66.8349 5.36798 67.3241 5.36798C67.8134 5.36798 68.0958 5.21324 68.0958 4.72102V2.40796H69.5967V4.77971C69.5967 5.99494 68.8675 6.36444 67.3254 6.36444C65.7834 6.36444 65.0528 5.99494 65.0528 4.77971V2.40796H65.0515Z" fill="black"/>
<path d="M76.9851 2.40796H75.4841V6.22971H76.9851V2.40796Z" fill="black"/>
<path fill-rule="evenodd" clip-rule="evenodd" d="M70.2488 6.23104H71.7073L71.6794 4.85975L73.1406 6.23104H75.0578L72.9735 4.27948L75.1679 2.40796H73.3448L71.7073 3.73257V2.40796H70.2488V6.23104Z" fill="black"/>
<path d="M91.4201 5.7695V4.47024H94.418V4.01536H91.4201V2.86817H94.8051V2.40796H90.907V6.22971H94.8423V5.7695H91.4201Z" fill="black"/>
<path d="M102.767 2.40918H102.358L99.9211 6.2296H100.534L101.254 5.09174H103.819L104.523 6.2296H105.123L102.764 2.40918H102.767ZM103.538 4.63153H101.553L102.565 3.05881L103.538 4.63153Z" fill="black"/>
<path d="M83.6284 2.40918H83.22L80.783 6.2296H81.3955L82.1155 5.09174H84.6811L85.3852 6.2296H85.9845L83.6257 2.40918H83.6284ZM84.4 4.63153H82.4151L83.4268 3.05881L84.4 4.63153Z" fill="black"/>
<path d="M99.2034 2.40796V5.51605C98.8428 5.18657 98.2793 4.68767 97.5275 4.03137C96.7571 3.35506 96.1565 2.81481 95.7441 2.4253L95.7256 2.40796H95.2456V6.22971H95.764V3.10961L99.2366 6.22971H99.7219V2.40796H99.2034Z" fill="black"/>
<path d="M89.444 4.52493C89.5341 4.50092 89.6137 4.47557 89.6839 4.44889C90.1759 4.26214 90.4251 3.95667 90.4251 3.53914C90.4251 2.78813 89.7953 2.40796 88.553 2.40796H86.1902V6.22838H86.7099V4.64232H88.4721C88.6086 4.64232 88.7465 4.63565 88.899 4.61964L89.9027 6.22971H90.5034L89.444 4.52493ZM89.4705 4.03804C89.2318 4.13542 88.9388 4.18477 88.5994 4.18477H86.7073V2.8655H88.5941C89.4678 2.8655 89.8934 3.08827 89.8934 3.54448C89.8934 3.76058 89.7555 3.92199 89.4691 4.03804H89.4705Z" fill="black"/>
</g>
<defs>
<clipPath id="clip0_1468_4633">
<rect width="113.181" height="32.0827" fill="white" transform="translate(0.027832 0.498047)"/>
</clipPath>
</defs>
</svg>
