<?xml version="1.0" encoding="UTF-8"?>
<svg xmlns="http://www.w3.org/2000/svg" xmlns:xlink="http://www.w3.org/1999/xlink" width="150px" height="70px" viewBox="0 0 150 70" version="1.1">
<g id="surface1">
<path style=" stroke:none;fill-rule:evenodd;fill:rgb(0%,48.235294%,75.686276%);fill-opacity:1;" d="M 68.210938 16.191406 L 68.210938 13.160156 L 57.96875 13.160156 L 57.96875 16.191406 L 61.058594 16.191406 L 61.058594 23.738281 L 65.039062 23.738281 L 65.039062 16.191406 Z M 68.210938 16.191406 "/>
<path style=" stroke:none;fill-rule:evenodd;fill:rgb(0%,48.235294%,75.686276%);fill-opacity:1;" d="M 75.460938 13.160156 L 71.300781 13.160156 L 67.609375 22.269531 L 67.011719 23.738281 L 71.171875 23.738281 L 73.398438 18.25 L 75.628906 23.738281 L 79.789062 23.738281 L 79.210938 22.320312 Z M 75.460938 13.160156 "/>
<path style=" stroke:none;fill-rule:evenodd;fill:rgb(0%,48.235294%,75.686276%);fill-opacity:1;" d="M 96.121094 13.160156 L 91.960938 13.160156 L 88.269531 22.261719 L 87.671875 23.738281 L 91.828125 23.738281 L 94.058594 18.25 L 96.289062 23.738281 L 100.449219 23.738281 Z M 96.121094 13.160156 "/>
<path style=" stroke:none;fill-rule:evenodd;fill:rgb(0%,48.235294%,75.686276%);fill-opacity:1;" d="M 88.878906 16.191406 L 88.878906 13.160156 L 78.628906 13.160156 L 78.628906 16.191406 L 81.71875 16.191406 L 81.71875 23.738281 L 85.710938 23.738281 L 85.710938 16.191406 Z M 88.878906 16.191406 "/>
<path style=" stroke:none;fill-rule:evenodd;fill:rgb(93.333334%,48.627451%,0%);fill-opacity:1;" d="M 77.910156 51.550781 C 77.949219 51.691406 77.898438 51.761719 77.738281 51.761719 L 76.121094 51.761719 C 76 51.761719 75.910156 51.691406 75.859375 51.539062 L 75.011719 49.03125 L 71.179688 49.03125 L 71.160156 49.050781 L 70.308594 51.53125 C 70.269531 51.671875 70.179688 51.75 70.039062 51.75 L 68.429688 51.75 C 68.28125 51.75 68.230469 51.671875 68.261719 51.519531 L 71.570312 41.808594 C 71.589844 41.730469 71.628906 41.691406 71.699219 41.691406 C 71.769531 41.691406 71.800781 41.730469 71.828125 41.808594 L 72.660156 44.230469 C 72.699219 44.359375 72.699219 44.5 72.660156 44.648438 L 71.78125 47.238281 L 71.800781 47.238281 C 71.800781 47.238281 74.421875 47.238281 74.421875 47.238281 L 72.179688 40.589844 C 72.121094 40.449219 72.179688 40.371094 72.328125 40.371094 L 73.960938 40.371094 C 74.089844 40.371094 74.179688 40.441406 74.21875 40.578125 L 77.910156 51.519531 Z M 77.910156 51.550781 "/>
<path style=" stroke:none;fill-rule:nonzero;fill:rgb(93.333334%,48.627451%,0%);fill-opacity:1;" d="M 78.878906 40.398438 L 80.480469 40.398438 C 80.589844 40.398438 80.679688 40.488281 80.679688 40.601562 L 80.679688 51.558594 C 80.679688 51.671875 80.589844 51.761719 80.480469 51.761719 L 78.878906 51.761719 C 78.769531 51.761719 78.679688 51.671875 78.679688 51.558594 L 78.679688 40.601562 C 78.679688 40.488281 78.769531 40.398438 78.878906 40.398438 Z M 78.878906 40.398438 "/>
<path style=" stroke:none;fill-rule:evenodd;fill:rgb(93.333334%,48.627451%,0%);fill-opacity:1;" d="M 84.679688 47 L 84.679688 46.96875 C 85.359375 46.691406 85.871094 46.269531 86.191406 45.691406 C 86.511719 45.121094 86.671875 44.5 86.671875 43.828125 C 86.671875 42.890625 86.359375 42.089844 85.730469 41.410156 C 85.109375 40.730469 84.140625 40.390625 82.820312 40.390625 L 81.578125 40.390625 C 81.449219 40.390625 81.378906 40.460938 81.378906 40.589844 L 81.378906 41.988281 C 81.378906 42.121094 81.449219 42.191406 81.578125 42.191406 L 82.929688 42.191406 C 83.488281 42.191406 83.921875 42.351562 84.21875 42.679688 C 84.519531 43.011719 84.671875 43.410156 84.671875 43.871094 C 84.671875 44.328125 84.519531 44.730469 84.21875 45.050781 C 83.921875 45.371094 83.488281 45.53125 82.929688 45.53125 L 81.578125 45.53125 C 81.449219 45.53125 81.378906 45.601562 81.378906 45.730469 L 81.378906 47.070312 C 81.378906 47.199219 81.449219 47.269531 81.578125 47.269531 L 82.601562 47.269531 L 82.628906 47.289062 L 84.691406 51.550781 C 84.761719 51.679688 84.859375 51.75 84.988281 51.75 L 86.871094 51.75 C 87.039062 51.75 87.078125 51.671875 87 51.511719 L 84.660156 47 Z M 84.679688 47 "/>
<path style=" stroke:none;fill-rule:evenodd;fill:rgb(93.333334%,48.627451%,0%);fill-opacity:1;" d="M 93.421875 40.609375 C 93.378906 40.46875 93.289062 40.398438 93.160156 40.398438 L 91.53125 40.398438 C 91.378906 40.398438 91.328125 40.46875 91.378906 40.621094 L 93.621094 47.269531 L 90.988281 47.269531 C 90.988281 47.269531 91.871094 44.671875 91.871094 44.671875 C 91.910156 44.53125 91.910156 44.390625 91.871094 44.25 L 91.039062 41.828125 C 91.019531 41.75 90.980469 41.710938 90.910156 41.710938 C 90.839844 41.710938 90.808594 41.75 90.78125 41.828125 L 87.46875 51.539062 C 87.441406 51.699219 87.488281 51.769531 87.640625 51.769531 L 89.25 51.769531 C 89.378906 51.769531 89.46875 51.699219 89.519531 51.550781 L 90.371094 49.070312 L 90.390625 49.050781 L 94.21875 49.050781 L 95.070312 51.558594 C 95.128906 51.699219 95.210938 51.78125 95.328125 51.78125 L 96.949219 51.78125 C 97.101562 51.78125 97.160156 51.710938 97.121094 51.570312 L 93.429688 40.628906 Z M 93.421875 40.609375 "/>
<path style=" stroke:none;fill-rule:evenodd;fill:rgb(93.333334%,48.627451%,0%);fill-opacity:1;" d="M 103.589844 40.398438 L 95.96875 40.398438 C 95.839844 40.398438 95.769531 40.46875 95.769531 40.601562 L 95.769531 42 C 95.769531 42.128906 95.839844 42.199219 95.96875 42.199219 C 97.230469 42.199219 98.171875 42.199219 98.808594 42.179688 L 98.839844 42.210938 C 98.828125 44.28125 98.820312 47.390625 98.820312 51.550781 C 98.820312 51.679688 98.890625 51.75 99.019531 51.75 L 100.640625 51.75 C 100.769531 51.75 100.839844 51.679688 100.839844 51.550781 C 100.839844 47.398438 100.839844 44.28125 100.820312 42.210938 L 100.851562 42.179688 C 101.449219 42.191406 102.359375 42.199219 103.570312 42.199219 C 103.699219 42.199219 103.769531 42.128906 103.769531 42 L 103.769531 40.601562 C 103.769531 40.46875 103.699219 40.398438 103.570312 40.398438 Z M 103.589844 40.398438 "/>
<path style=" stroke:none;fill-rule:nonzero;fill:rgb(93.333334%,48.627451%,0%);fill-opacity:1;" d="M 110.941406 40.398438 L 112.539062 40.398438 C 112.648438 40.398438 112.738281 40.488281 112.738281 40.601562 L 112.738281 51.558594 C 112.738281 51.671875 112.648438 51.761719 112.539062 51.761719 L 110.941406 51.761719 C 110.828125 51.761719 110.738281 51.671875 110.738281 51.558594 L 110.738281 40.601562 C 110.738281 40.488281 110.828125 40.398438 110.941406 40.398438 Z M 110.941406 40.398438 "/>
<path style=" stroke:none;fill-rule:evenodd;fill:rgb(93.333334%,48.627451%,0%);fill-opacity:1;" d="M 109.851562 45.121094 L 106.628906 45.121094 L 106.628906 40.589844 C 106.628906 40.460938 106.558594 40.390625 106.429688 40.390625 L 104.828125 40.390625 C 104.699219 40.390625 104.628906 40.460938 104.628906 40.589844 L 104.628906 51.550781 C 104.628906 51.679688 104.699219 51.75 104.828125 51.75 L 106.429688 51.75 C 106.558594 51.75 106.628906 51.679688 106.628906 51.550781 L 106.628906 46.890625 L 109.851562 46.890625 C 109.980469 46.890625 110.050781 46.820312 110.050781 46.691406 L 110.050781 45.320312 C 110.050781 45.191406 109.980469 45.121094 109.851562 45.121094 Z M 109.851562 45.121094 "/>
<path style=" stroke:none;fill-rule:evenodd;fill:rgb(93.333334%,48.627451%,0%);fill-opacity:1;" d="M 118.539062 40.300781 C 118.410156 40.300781 118.339844 40.359375 118.339844 40.480469 L 118.339844 41.878906 C 118.339844 42.019531 118.410156 42.101562 118.539062 42.109375 C 119.128906 42.210938 119.53125 42.511719 119.730469 43.019531 C 119.941406 43.53125 120.039062 44.261719 120.039062 45.230469 L 120.039062 46.898438 C 120.039062 47.871094 119.941406 48.609375 119.730469 49.109375 C 119.519531 49.621094 119.128906 49.921875 118.539062 50.019531 C 118.410156 50.03125 118.339844 50.109375 118.339844 50.25 L 118.339844 51.648438 C 118.339844 51.769531 118.410156 51.828125 118.539062 51.828125 C 119.71875 51.730469 120.601562 51.269531 121.179688 50.460938 C 121.761719 49.648438 122.050781 48.609375 122.050781 47.351562 L 122.050781 44.738281 C 122.050781 43.480469 121.761719 42.449219 121.179688 41.628906 C 120.601562 40.820312 119.71875 40.359375 118.539062 40.261719 Z M 118.539062 40.300781 "/>
<path style=" stroke:none;fill-rule:evenodd;fill:rgb(93.333334%,48.627451%,0%);fill-opacity:1;" d="M 117.441406 40.300781 C 116.261719 40.398438 115.378906 40.859375 114.800781 41.671875 C 114.21875 42.480469 113.929688 43.519531 113.929688 44.78125 L 113.929688 47.390625 C 113.929688 48.648438 114.21875 49.679688 114.800781 50.5 C 115.378906 51.308594 116.261719 51.769531 117.441406 51.871094 C 117.570312 51.871094 117.640625 51.808594 117.640625 51.691406 L 117.640625 50.289062 C 117.640625 50.148438 117.570312 50.070312 117.441406 50.058594 C 116.851562 49.960938 116.449219 49.660156 116.25 49.148438 C 116.039062 48.640625 115.941406 47.910156 115.941406 46.941406 L 115.941406 45.269531 C 115.941406 44.300781 116.039062 43.558594 116.25 43.058594 C 116.460938 42.550781 116.851562 42.25 117.441406 42.148438 C 117.570312 42.140625 117.640625 42.058594 117.640625 41.921875 L 117.640625 40.519531 C 117.640625 40.398438 117.570312 40.339844 117.441406 40.339844 Z M 117.441406 40.300781 "/>
<path style=" stroke:none;fill-rule:evenodd;fill:rgb(93.333334%,48.627451%,0%);fill-opacity:1;" d="M 131.339844 49.71875 C 131.378906 49.789062 131.441406 49.808594 131.5 49.789062 C 131.558594 49.769531 131.589844 49.71875 131.589844 49.660156 L 131.589844 40.609375 C 131.589844 40.480469 131.519531 40.410156 131.390625 40.410156 L 129.789062 40.410156 C 129.660156 40.410156 129.589844 40.480469 129.589844 40.609375 L 129.589844 46.441406 C 129.589844 46.570312 129.621094 46.699219 129.691406 46.808594 L 131.339844 49.730469 Z M 131.339844 49.71875 "/>
<path style=" stroke:none;fill-rule:evenodd;fill:rgb(93.333334%,48.627451%,0%);fill-opacity:1;" d="M 131.570312 51.5 L 125.421875 40.558594 C 125.351562 40.449219 125.25 40.398438 125.121094 40.398438 L 123.371094 40.398438 C 123.371094 40.398438 123.359375 40.398438 123.351562 40.398438 C 123.308594 40.398438 123.269531 40.398438 123.25 40.421875 C 123.21875 40.441406 123.210938 40.480469 123.210938 40.519531 L 123.210938 51.558594 C 123.210938 51.691406 123.28125 51.761719 123.410156 51.761719 L 125.011719 51.761719 C 125.140625 51.761719 125.210938 51.691406 125.210938 51.558594 L 125.191406 44.140625 L 129.351562 51.589844 C 129.421875 51.699219 129.519531 51.761719 129.648438 51.761719 L 131.441406 51.761719 C 131.511719 51.761719 131.550781 51.730469 131.570312 51.671875 C 131.589844 51.609375 131.589844 51.558594 131.550781 51.5 Z M 131.570312 51.5 "/>
<path style=" stroke:none;fill-rule:evenodd;fill:rgb(93.333334%,48.627451%,0%);fill-opacity:1;" d="M 60 40.578125 C 59.929688 40.449219 59.839844 40.390625 59.71875 40.390625 L 58.140625 40.390625 C 58.140625 40.390625 58.109375 40.390625 58.101562 40.390625 C 58.101562 40.390625 58.078125 40.390625 58.078125 40.390625 C 58.070312 40.390625 58.058594 40.390625 58.050781 40.398438 C 58.050781 40.398438 58.039062 40.398438 58.03125 40.398438 C 58.019531 40.398438 58 40.410156 58 40.429688 C 57.980469 40.449219 57.96875 40.480469 57.980469 40.519531 L 57.980469 51.539062 C 57.980469 51.671875 58.050781 51.738281 58.179688 51.738281 L 59.78125 51.738281 C 59.910156 51.738281 59.980469 51.671875 59.980469 51.539062 L 59.980469 44.511719 L 61.570312 47.648438 C 61.640625 47.78125 61.738281 47.851562 61.871094 47.851562 L 63.410156 47.851562 C 63.480469 47.851562 63.519531 47.820312 63.539062 47.769531 C 63.558594 47.71875 63.558594 47.660156 63.519531 47.589844 L 60.011719 40.570312 Z M 60 40.578125 "/>
<path style=" stroke:none;fill-rule:evenodd;fill:rgb(93.333334%,48.627451%,0%);fill-opacity:1;" d="M 67.5 40.449219 C 67.5 40.449219 67.460938 40.398438 67.421875 40.398438 C 67.421875 40.398438 67.398438 40.398438 67.390625 40.398438 C 67.371094 40.398438 67.359375 40.398438 67.351562 40.398438 L 65.761719 40.398438 C 65.640625 40.398438 65.539062 40.460938 65.46875 40.578125 L 63.179688 44.980469 C 63.109375 45.121094 63.109375 45.261719 63.179688 45.378906 L 63.929688 46.878906 C 63.96875 46.960938 64.019531 47 64.078125 47 C 64.140625 47 64.179688 46.96875 64.210938 46.898438 L 65.511719 44.398438 L 65.511719 51.570312 C 65.511719 51.699219 65.578125 51.769531 65.710938 51.769531 L 67.308594 51.769531 C 67.441406 51.769531 67.511719 51.699219 67.511719 51.570312 L 67.511719 40.539062 C 67.511719 40.539062 67.511719 40.5 67.488281 40.480469 C 67.488281 40.480469 67.488281 40.480469 67.488281 40.46875 Z M 67.5 40.449219 "/>
<path style=" stroke:none;fill-rule:evenodd;fill:rgb(93.333334%,48.627451%,0%);fill-opacity:1;" d="M 57.96875 37.550781 C 57.96875 37.679688 58.039062 37.75 58.171875 37.75 L 59.769531 37.75 C 59.898438 37.75 59.96875 37.679688 59.96875 37.550781 L 59.96875 30.519531 L 61.558594 33.660156 C 61.628906 33.789062 61.730469 33.859375 61.859375 33.859375 L 63.398438 33.859375 C 63.46875 33.859375 63.511719 33.828125 63.53125 33.78125 C 63.550781 33.730469 63.550781 33.671875 63.511719 33.601562 L 60 26.578125 C 59.929688 26.460938 59.839844 26.390625 59.71875 26.390625 L 58.140625 26.390625 C 58.140625 26.390625 58.109375 26.390625 58.101562 26.390625 C 58.101562 26.390625 58.078125 26.390625 58.078125 26.390625 C 58.070312 26.390625 58.058594 26.390625 58.050781 26.398438 C 58.050781 26.398438 58.039062 26.398438 58.03125 26.398438 C 58.019531 26.398438 58 26.410156 58 26.429688 C 57.980469 26.449219 57.96875 26.480469 57.980469 26.519531 L 57.980469 37.539062 Z M 57.96875 37.550781 "/>
<path style=" stroke:none;fill-rule:evenodd;fill:rgb(93.333334%,48.627451%,0%);fill-opacity:1;" d="M 67.5 26.441406 C 67.5 26.441406 67.460938 26.390625 67.421875 26.390625 C 67.421875 26.390625 67.398438 26.390625 67.390625 26.390625 C 67.371094 26.390625 67.359375 26.390625 67.351562 26.390625 L 65.761719 26.390625 C 65.640625 26.390625 65.539062 26.449219 65.46875 26.570312 L 63.179688 30.96875 C 63.109375 31.109375 63.109375 31.25 63.179688 31.371094 L 63.929688 32.871094 C 63.96875 32.949219 64.019531 32.988281 64.078125 32.988281 C 64.140625 32.988281 64.179688 32.960938 64.210938 32.890625 L 65.511719 30.390625 L 65.511719 37.558594 C 65.511719 37.691406 65.578125 37.761719 65.710938 37.761719 L 67.308594 37.761719 C 67.441406 37.761719 67.511719 37.691406 67.511719 37.558594 L 67.511719 26.53125 C 67.511719 26.53125 67.511719 26.488281 67.488281 26.46875 C 67.488281 26.46875 67.488281 26.46875 67.488281 26.460938 Z M 67.5 26.441406 "/>
<path style=" stroke:none;fill-rule:evenodd;fill:rgb(93.333334%,48.627451%,0%);fill-opacity:1;" d="M 70.191406 36.898438 C 70.601562 37.199219 70.980469 37.421875 71.328125 37.558594 C 71.691406 37.699219 72.050781 37.800781 72.421875 37.851562 C 72.550781 37.851562 72.621094 37.789062 72.621094 37.671875 L 72.621094 36.28125 C 72.621094 36.148438 72.550781 36.058594 72.421875 36.03125 C 71.359375 35.769531 70.828125 34.960938 70.828125 33.589844 L 70.828125 26.589844 C 70.828125 26.460938 70.761719 26.390625 70.628906 26.390625 L 69.03125 26.390625 C 68.898438 26.390625 68.828125 26.460938 68.828125 26.589844 L 68.828125 33.539062 C 68.828125 34.320312 68.960938 35 69.210938 35.578125 C 69.460938 36.160156 69.789062 36.601562 70.199219 36.898438 Z M 70.191406 36.898438 "/>
<path style=" stroke:none;fill-rule:evenodd;fill:rgb(93.333334%,48.627451%,0%);fill-opacity:1;" d="M 73.53125 37.828125 C 73.871094 37.800781 74.230469 37.710938 74.601562 37.570312 C 74.96875 37.429688 75.351562 37.21875 75.75 36.929688 C 76.148438 36.648438 76.480469 36.238281 76.738281 35.699219 C 77 35.171875 77.121094 34.539062 77.121094 33.828125 L 77.121094 26.578125 C 77.121094 26.449219 77.050781 26.378906 76.921875 26.378906 L 75.328125 26.378906 C 75.199219 26.378906 75.128906 26.449219 75.128906 26.578125 L 75.128906 33.679688 C 75.128906 34.359375 74.980469 34.890625 74.671875 35.28125 C 74.359375 35.660156 73.980469 35.910156 73.53125 36.011719 C 73.398438 36.039062 73.328125 36.128906 73.328125 36.261719 L 73.328125 37.660156 C 73.328125 37.769531 73.398438 37.828125 73.53125 37.828125 Z M 73.53125 37.828125 "/>
<path style=" stroke:none;fill-rule:nonzero;fill:rgb(93.333334%,48.627451%,0%);fill-opacity:1;" d="M 89.621094 26.390625 L 91.21875 26.390625 C 91.328125 26.390625 91.421875 26.480469 91.421875 26.589844 L 91.421875 37.550781 C 91.421875 37.660156 91.328125 37.75 91.21875 37.75 L 89.621094 37.75 C 89.511719 37.75 89.421875 37.660156 89.421875 37.550781 L 89.421875 26.589844 C 89.421875 26.480469 89.511719 26.390625 89.621094 26.390625 Z M 89.621094 26.390625 "/>
<path style=" stroke:none;fill-rule:evenodd;fill:rgb(93.333334%,48.627451%,0%);fill-opacity:1;" d="M 92.328125 37.75 L 94.128906 37.75 C 94.828125 37.75 95.441406 37.640625 95.941406 37.421875 C 96.449219 37.199219 96.820312 36.921875 97.070312 36.570312 C 97.308594 36.21875 97.488281 35.871094 97.601562 35.53125 C 97.710938 35.191406 97.761719 34.839844 97.761719 34.488281 C 97.761719 33.300781 97.238281 32.449219 96.210938 31.929688 L 96.210938 31.898438 C 97.128906 31.429688 97.601562 30.640625 97.601562 29.511719 C 97.601562 28.648438 97.289062 27.921875 96.679688 27.300781 C 96.070312 26.691406 95.089844 26.378906 93.738281 26.378906 L 92.339844 26.378906 C 92.210938 26.378906 92.140625 26.449219 92.140625 26.578125 L 92.140625 27.980469 C 92.140625 28.109375 92.210938 28.179688 92.339844 28.179688 L 93.980469 28.179688 C 95.078125 28.179688 95.628906 28.660156 95.628906 29.621094 C 95.628906 30.609375 95.078125 31.109375 93.988281 31.109375 L 92.339844 31.109375 C 92.210938 31.109375 92.140625 31.179688 92.140625 31.308594 L 92.140625 32.679688 C 92.140625 32.808594 92.210938 32.878906 92.339844 32.878906 L 94.089844 32.878906 C 94.640625 32.878906 95.050781 33.019531 95.328125 33.289062 C 95.609375 33.558594 95.761719 33.949219 95.761719 34.449219 C 95.761719 35.441406 95.199219 35.941406 94.089844 35.941406 L 92.339844 35.941406 C 92.210938 35.941406 92.140625 36.011719 92.140625 36.140625 L 92.140625 37.539062 C 92.140625 37.671875 92.210938 37.738281 92.339844 37.738281 Z M 92.328125 37.75 "/>
<path style=" stroke:none;fill-rule:evenodd;fill:rgb(93.333334%,48.627451%,0%);fill-opacity:1;" d="M 98.039062 37.75 L 99.648438 37.75 C 99.78125 37.75 99.871094 37.679688 99.921875 37.53125 L 100.769531 35.050781 L 100.789062 35.03125 L 104.621094 35.03125 L 105.46875 37.539062 C 105.519531 37.679688 105.609375 37.761719 105.730469 37.761719 L 107.351562 37.761719 C 107.5 37.761719 107.558594 37.691406 107.519531 37.550781 L 103.828125 26.609375 C 103.789062 26.46875 103.699219 26.398438 103.570312 26.398438 L 101.941406 26.398438 C 101.789062 26.398438 101.738281 26.46875 101.789062 26.621094 L 104.03125 33.269531 L 101.398438 33.269531 C 101.398438 33.269531 102.28125 30.671875 102.28125 30.671875 C 102.320312 30.53125 102.320312 30.390625 102.28125 30.25 L 101.449219 27.820312 C 101.429688 27.738281 101.390625 27.699219 101.320312 27.699219 C 101.25 27.699219 101.21875 27.738281 101.191406 27.820312 L 97.878906 37.53125 C 97.851562 37.691406 97.898438 37.761719 98.050781 37.761719 Z M 98.039062 37.75 "/>
<path style=" stroke:none;fill-rule:nonzero;fill:rgb(93.333334%,48.627451%,0%);fill-opacity:1;" d="M 108.480469 26.390625 L 110.101562 26.390625 C 110.210938 26.390625 110.300781 26.480469 110.300781 26.589844 L 110.300781 37.550781 C 110.300781 37.660156 110.210938 37.75 110.101562 37.75 L 108.480469 37.75 C 108.371094 37.75 108.28125 37.660156 108.28125 37.550781 L 108.28125 26.589844 C 108.28125 26.480469 108.371094 26.390625 108.480469 26.390625 Z M 108.480469 26.390625 "/>
<path style=" stroke:none;fill-rule:evenodd;fill:rgb(93.333334%,48.627451%,0%);fill-opacity:1;" d="M 80.421875 37.550781 L 80.421875 30.519531 L 82.011719 33.660156 C 82.078125 33.789062 82.179688 33.859375 82.308594 33.859375 L 83.851562 33.859375 C 83.921875 33.859375 83.960938 33.828125 83.980469 33.78125 C 84 33.730469 84 33.671875 83.960938 33.601562 L 80.449219 26.578125 C 80.378906 26.460938 80.289062 26.390625 80.171875 26.390625 L 78.589844 26.390625 C 78.589844 26.390625 78.558594 26.390625 78.550781 26.390625 C 78.550781 26.390625 78.53125 26.390625 78.519531 26.390625 C 78.511719 26.390625 78.5 26.390625 78.488281 26.398438 C 78.488281 26.398438 78.480469 26.398438 78.46875 26.398438 C 78.460938 26.398438 78.441406 26.410156 78.441406 26.429688 C 78.421875 26.449219 78.410156 26.480469 78.421875 26.519531 L 78.421875 37.539062 C 78.421875 37.671875 78.488281 37.738281 78.621094 37.738281 L 80.21875 37.738281 C 80.351562 37.738281 80.421875 37.671875 80.421875 37.539062 Z M 80.421875 37.550781 "/>
<path style=" stroke:none;fill-rule:evenodd;fill:rgb(93.333334%,48.627451%,0%);fill-opacity:1;" d="M 84.371094 32.871094 C 84.410156 32.949219 84.460938 32.988281 84.519531 32.988281 C 84.578125 32.988281 84.621094 32.960938 84.648438 32.890625 L 85.949219 30.390625 L 85.949219 37.558594 C 85.949219 37.691406 86.019531 37.761719 86.148438 37.761719 L 87.75 37.761719 C 87.878906 37.761719 87.949219 37.691406 87.949219 37.558594 L 87.949219 26.53125 C 87.949219 26.53125 87.949219 26.488281 87.929688 26.46875 C 87.929688 26.46875 87.929688 26.46875 87.929688 26.460938 C 87.910156 26.429688 87.890625 26.410156 87.851562 26.410156 C 87.851562 26.410156 87.828125 26.410156 87.820312 26.410156 C 87.808594 26.410156 87.789062 26.410156 87.78125 26.410156 L 86.191406 26.410156 C 86.070312 26.410156 85.96875 26.46875 85.898438 26.589844 L 83.609375 30.988281 C 83.539062 31.128906 83.539062 31.269531 83.609375 31.390625 L 84.359375 32.890625 Z M 84.371094 32.871094 "/>
<path style=" stroke:none;fill-rule:evenodd;fill:rgb(0%,48.235294%,75.686276%);fill-opacity:1;" d="M 86.230469 55.890625 C 85.75 55.710938 85.539062 55.578125 85.539062 55.308594 C 85.539062 55.101562 85.71875 54.878906 86.140625 54.878906 C 86.480469 54.878906 86.730469 54.980469 86.859375 55.050781 L 87.019531 54.53125 C 86.828125 54.441406 86.550781 54.359375 86.148438 54.359375 C 85.359375 54.359375 84.871094 54.789062 84.871094 55.378906 C 84.871094 55.890625 85.25 56.199219 85.851562 56.410156 C 86.308594 56.570312 86.488281 56.730469 86.488281 57 C 86.488281 57.289062 86.25 57.480469 85.828125 57.480469 C 85.488281 57.480469 85.171875 57.371094 84.949219 57.25 L 84.800781 57.789062 C 85 57.910156 85.398438 58.011719 85.78125 58.011719 C 86.71875 58.011719 87.160156 57.511719 87.160156 56.941406 C 87.160156 56.429688 86.851562 56.121094 86.21875 55.890625 Z M 86.230469 55.890625 "/>
<path style=" stroke:none;fill-rule:evenodd;fill:rgb(0%,48.235294%,75.686276%);fill-opacity:1;" d="M 89.929688 56.480469 C 89.929688 57.179688 89.640625 57.488281 89.160156 57.488281 C 88.710938 57.488281 88.421875 57.171875 88.421875 56.480469 L 88.421875 54.410156 L 87.761719 54.410156 L 87.761719 56.441406 C 87.761719 57.558594 88.300781 58.011719 89.140625 58.011719 C 89.980469 58.011719 90.589844 57.53125 90.589844 56.429688 L 90.589844 54.398438 L 89.929688 54.398438 Z M 89.929688 56.480469 "/>
<path style=" stroke:none;fill-rule:evenodd;fill:rgb(0%,48.235294%,75.686276%);fill-opacity:1;" d="M 92.011719 57.410156 L 92.011719 54.410156 L 91.339844 54.410156 L 91.339844 57.949219 L 93.5 57.949219 L 93.5 57.410156 Z M 92.011719 57.410156 "/>
<path style=" stroke:none;fill-rule:evenodd;fill:rgb(0%,48.235294%,75.686276%);fill-opacity:1;" d="M 95.871094 54.949219 L 95.871094 54.410156 L 93.128906 54.410156 L 93.128906 54.949219 L 94.171875 54.949219 L 94.171875 57.949219 L 94.828125 57.949219 L 94.828125 54.949219 Z M 95.871094 54.949219 "/>
<path style=" stroke:none;fill-rule:evenodd;fill:rgb(0%,48.235294%,75.686276%);fill-opacity:1;" d="M 76.320312 54.890625 C 76.621094 54.890625 76.859375 54.949219 77.03125 55.03125 L 77.171875 54.511719 C 77.039062 54.441406 76.730469 54.351562 76.289062 54.351562 C 75.179688 54.351562 74.351562 55.050781 74.351562 56.21875 C 74.351562 57.300781 75.050781 58.011719 76.199219 58.011719 C 76.640625 58.011719 76.988281 57.929688 77.140625 57.851562 L 77.03125 57.339844 C 76.859375 57.421875 76.578125 57.46875 76.308594 57.46875 C 75.511719 57.46875 75.050781 56.96875 75.050781 56.191406 C 75.050781 55.328125 75.578125 54.878906 76.320312 54.878906 Z M 76.320312 54.890625 "/>
<path style=" stroke:none;fill-rule:evenodd;fill:rgb(0%,48.235294%,75.686276%);fill-opacity:1;" d="M 69.621094 54.410156 L 68.398438 57.511719 L 68.230469 57.949219 L 69.648438 57.949219 L 70.378906 55.828125 L 71.121094 57.949219 L 72.539062 57.949219 L 71.148438 54.410156 Z M 69.621094 54.410156 "/>
<path style=" stroke:none;fill-rule:evenodd;fill:rgb(0%,48.235294%,75.686276%);fill-opacity:1;" d="M 68.578125 55.429688 L 68.578125 54.410156 L 65.078125 54.410156 L 65.078125 55.429688 L 66.101562 55.429688 L 66.101562 57.949219 L 67.550781 57.949219 L 67.550781 55.429688 Z M 68.578125 55.429688 "/>
<path style=" stroke:none;fill-rule:evenodd;fill:rgb(0%,48.235294%,75.686276%);fill-opacity:1;" d="M 61.46875 55.429688 L 61.46875 54.410156 L 57.96875 54.410156 L 57.96875 55.429688 L 59 55.429688 L 59 57.949219 L 60.441406 57.949219 L 60.441406 55.429688 Z M 61.46875 55.429688 "/>
<path style=" stroke:none;fill-rule:evenodd;fill:rgb(0%,48.235294%,75.686276%);fill-opacity:1;" d="M 64.039062 54.410156 L 62.511719 54.410156 L 61.289062 57.511719 L 61.121094 57.949219 L 62.53125 57.949219 L 63.269531 55.828125 L 64.011719 57.949219 L 65.429688 57.949219 L 65.25 57.511719 Z M 64.039062 54.410156 "/>
<path style=" stroke:none;fill-rule:evenodd;fill:rgb(0%,48.235294%,75.686276%);fill-opacity:1;" d="M 79.058594 57.488281 L 79.050781 57.488281 C 78.421875 57.488281 78.050781 56.890625 78.050781 56.191406 C 78.050781 55.480469 78.398438 54.871094 79.058594 54.859375 C 79.71875 54.859375 80.058594 55.5 80.058594 56.160156 C 80.058594 56.898438 79.691406 57.480469 79.058594 57.480469 Z M 79.089844 54.351562 L 79.058594 54.351562 C 78.050781 54.359375 77.359375 55.128906 77.359375 56.210938 C 77.359375 57.289062 78.011719 58.011719 79.03125 58.011719 L 79.058594 58.011719 C 80.039062 58.011719 80.769531 57.320312 80.769531 56.140625 C 80.769531 55.128906 80.140625 54.339844 79.089844 54.339844 Z M 79.089844 54.351562 "/>
<path style=" stroke:none;fill-rule:evenodd;fill:rgb(0%,48.235294%,75.686276%);fill-opacity:1;" d="M 83.601562 55.640625 C 83.601562 56.179688 83.609375 56.640625 83.660156 57.109375 L 83.648438 57.109375 C 83.480469 56.730469 83.269531 56.308594 83.03125 55.921875 L 82.101562 54.398438 L 81.339844 54.398438 L 81.339844 57.949219 L 81.949219 57.949219 L 81.949219 56.679688 C 81.949219 56.101562 81.949219 55.628906 81.921875 55.171875 L 81.941406 55.171875 C 82.121094 55.570312 82.351562 56 82.589844 56.390625 L 83.539062 57.949219 L 84.230469 57.949219 L 84.230469 54.398438 L 83.621094 54.398438 L 83.621094 55.640625 Z M 83.601562 55.640625 "/>
<path style=" stroke:none;fill-rule:nonzero;fill:rgb(0%,48.235294%,75.686276%);fill-opacity:1;" d="M 122.050781 54.410156 L 122.710938 54.410156 L 122.710938 57.960938 L 122.050781 57.960938 Z M 122.050781 54.410156 "/>
<path style=" stroke:none;fill-rule:evenodd;fill:rgb(0%,48.235294%,75.686276%);fill-opacity:1;" d="M 125.25 54.878906 C 125.539062 54.878906 125.789062 54.941406 125.960938 55.019531 L 126.101562 54.5 C 125.960938 54.429688 125.660156 54.339844 125.21875 54.339844 C 124.109375 54.339844 123.28125 55.050781 123.28125 56.210938 C 123.28125 57.289062 123.980469 58 125.128906 58 C 125.570312 58 125.910156 57.910156 126.070312 57.839844 L 125.960938 57.328125 C 125.789062 57.410156 125.511719 57.460938 125.238281 57.460938 C 124.449219 57.460938 123.980469 56.96875 123.980469 56.191406 C 123.980469 55.339844 124.511719 54.878906 125.25 54.878906 Z M 125.25 54.878906 "/>
<path style=" stroke:none;fill-rule:evenodd;fill:rgb(0%,48.235294%,75.686276%);fill-opacity:1;" d="M 97.199219 56.460938 L 96.730469 56.460938 L 97.011719 55.578125 C 97.070312 55.371094 97.128906 55.121094 97.191406 54.921875 L 97.199219 54.921875 C 97.25 55.128906 97.308594 55.371094 97.378906 55.578125 L 97.660156 56.460938 L 97.191406 56.460938 Z M 97.199219 54.410156 L 96.789062 54.410156 L 95.75 57.589844 L 95.628906 57.960938 L 96.308594 57.960938 L 96.621094 56.960938 L 97.769531 56.960938 L 98.101562 57.960938 L 98.808594 57.960938 L 97.628906 54.410156 L 97.191406 54.410156 Z M 97.199219 54.410156 "/>
<path style=" stroke:none;fill-rule:evenodd;fill:rgb(0%,48.235294%,75.686276%);fill-opacity:1;" d="M 130.660156 55.890625 C 130.179688 55.710938 129.96875 55.578125 129.96875 55.308594 C 129.96875 55.101562 130.148438 54.878906 130.570312 54.878906 C 130.910156 54.878906 131.171875 54.980469 131.289062 55.050781 L 131.449219 54.53125 C 131.261719 54.441406 130.96875 54.351562 130.578125 54.351562 C 129.789062 54.351562 129.300781 54.789062 129.300781 55.371094 C 129.300781 55.878906 129.679688 56.199219 130.28125 56.398438 C 130.738281 56.558594 130.921875 56.71875 130.921875 56.988281 C 130.921875 57.28125 130.679688 57.46875 130.261719 57.46875 C 129.921875 57.46875 129.589844 57.359375 129.378906 57.25 L 129.230469 57.789062 C 129.429688 57.910156 129.828125 58.011719 130.210938 58.011719 C 131.140625 58.011719 131.578125 57.511719 131.578125 56.941406 C 131.578125 56.429688 131.28125 56.121094 130.648438 55.890625 Z M 130.660156 55.890625 "/>
<path style=" stroke:none;fill-rule:evenodd;fill:rgb(0%,48.235294%,75.686276%);fill-opacity:1;" d="M 127.289062 56.378906 L 128.660156 56.378906 L 128.660156 55.851562 L 127.289062 55.851562 L 127.289062 54.941406 L 128.738281 54.941406 L 128.738281 54.410156 L 126.628906 54.410156 L 126.628906 57.949219 L 128.820312 57.949219 L 128.820312 57.421875 L 127.289062 57.421875 Z M 127.289062 56.378906 "/>
<path style=" stroke:none;fill-rule:evenodd;fill:rgb(0%,48.235294%,75.686276%);fill-opacity:1;" d="M 116.941406 56.019531 C 116.890625 56.019531 116.828125 56.03125 116.78125 56.03125 L 116.390625 56.03125 L 116.390625 54.921875 C 116.460938 54.910156 116.589844 54.890625 116.800781 54.890625 C 116.851562 54.890625 116.898438 54.890625 116.949219 54.890625 C 117.289062 54.929688 117.5 55.109375 117.5 55.449219 C 117.5 55.75 117.289062 55.96875 116.949219 56.019531 Z M 117.488281 56.289062 L 117.488281 56.269531 C 117.828125 56.160156 118.148438 55.851562 118.148438 55.390625 C 118.148438 55.089844 118.039062 54.851562 117.839844 54.691406 C 117.640625 54.519531 117.308594 54.441406 116.941406 54.410156 C 116.871094 54.410156 116.800781 54.410156 116.730469 54.410156 C 116.289062 54.410156 115.988281 54.441406 115.738281 54.480469 L 115.738281 57.949219 L 116.390625 57.949219 L 116.390625 56.5 L 116.71875 56.5 C 116.800781 56.5 116.878906 56.511719 116.941406 56.53125 C 117.160156 56.589844 117.289062 56.761719 117.359375 57.121094 C 117.460938 57.558594 117.550781 57.851562 117.601562 57.949219 L 118.269531 57.949219 C 118.199219 57.808594 118.101562 57.410156 117.980469 56.96875 C 117.890625 56.628906 117.738281 56.390625 117.480469 56.289062 Z M 117.488281 56.289062 "/>
<path style=" stroke:none;fill-rule:evenodd;fill:rgb(0%,48.235294%,75.686276%);fill-opacity:1;" d="M 120.421875 56.019531 C 120.28125 56.449219 120.148438 56.890625 120.050781 57.300781 L 120.039062 57.300781 C 119.949219 56.871094 119.820312 56.460938 119.691406 56.011719 L 119.191406 54.398438 L 118.46875 54.398438 L 119.640625 57.949219 L 120.398438 57.949219 L 121.648438 54.398438 L 120.941406 54.398438 L 120.410156 56.019531 Z M 120.421875 56.019531 "/>
<path style=" stroke:none;fill-rule:evenodd;fill:rgb(0%,48.235294%,75.686276%);fill-opacity:1;" d="M 104.738281 54.890625 C 105.039062 54.890625 105.28125 54.949219 105.449219 55.03125 L 105.589844 54.511719 C 105.449219 54.441406 105.148438 54.351562 104.710938 54.351562 C 103.601562 54.351562 102.769531 55.050781 102.769531 56.21875 C 102.769531 57.300781 103.46875 58.011719 104.621094 58.011719 C 105.058594 58.011719 105.398438 57.929688 105.558594 57.851562 L 105.449219 57.339844 C 105.28125 57.421875 105 57.46875 104.730469 57.46875 C 103.941406 57.46875 103.46875 56.96875 103.46875 56.191406 C 103.46875 55.328125 104 54.878906 104.738281 54.878906 Z M 104.738281 54.890625 "/>
<path style=" stroke:none;fill-rule:evenodd;fill:rgb(0%,48.235294%,75.686276%);fill-opacity:1;" d="M 101.578125 55.640625 C 101.578125 56.179688 101.589844 56.640625 101.640625 57.109375 L 101.628906 57.109375 C 101.460938 56.730469 101.25 56.308594 101.011719 55.921875 L 100.070312 54.398438 L 99.308594 54.398438 L 99.308594 57.949219 L 99.921875 57.949219 L 99.921875 56.679688 C 99.921875 56.101562 99.910156 55.628906 99.878906 55.171875 L 99.898438 55.171875 C 100.078125 55.570312 100.320312 56 100.550781 56.390625 L 101.5 57.949219 L 102.191406 57.949219 L 102.191406 54.398438 L 101.578125 54.398438 Z M 101.578125 55.640625 "/>
<path style=" stroke:none;fill-rule:evenodd;fill:rgb(0%,48.235294%,75.686276%);fill-opacity:1;" d="M 111.589844 55.890625 C 111.109375 55.710938 110.890625 55.578125 110.890625 55.308594 C 110.890625 55.101562 111.070312 54.878906 111.488281 54.878906 C 111.828125 54.878906 112.078125 54.980469 112.210938 55.050781 L 112.371094 54.53125 C 112.179688 54.441406 111.890625 54.351562 111.5 54.351562 C 110.710938 54.351562 110.210938 54.789062 110.210938 55.371094 C 110.210938 55.878906 110.589844 56.199219 111.191406 56.398438 C 111.648438 56.558594 111.828125 56.71875 111.828125 56.988281 C 111.828125 57.28125 111.589844 57.46875 111.171875 57.46875 C 110.828125 57.46875 110.511719 57.359375 110.289062 57.25 L 110.140625 57.789062 C 110.339844 57.910156 110.738281 58.011719 111.121094 58.011719 C 112.058594 58.011719 112.5 57.511719 112.5 56.941406 C 112.5 56.429688 112.199219 56.121094 111.570312 55.890625 Z M 111.589844 55.890625 "/>
<path style=" stroke:none;fill-rule:evenodd;fill:rgb(0%,48.235294%,75.686276%);fill-opacity:1;" d="M 107.621094 55.308594 C 107.5 55.570312 107.398438 55.789062 107.308594 56.019531 C 107.210938 55.78125 107.109375 55.578125 106.988281 55.308594 L 106.558594 54.398438 L 105.800781 54.398438 L 106.941406 56.46875 L 106.941406 57.949219 L 107.601562 57.949219 L 107.601562 56.460938 L 108.808594 54.398438 L 108.058594 54.398438 Z M 107.621094 55.308594 "/>
<path style=" stroke:none;fill-rule:evenodd;fill:rgb(0%,48.235294%,75.686276%);fill-opacity:1;" d="M 113.78125 56.378906 L 115.140625 56.378906 L 115.140625 55.851562 L 113.78125 55.851562 L 113.78125 54.941406 L 115.21875 54.941406 L 115.21875 54.410156 L 113.121094 54.410156 L 113.121094 57.949219 L 115.300781 57.949219 L 115.300781 57.421875 L 113.78125 57.421875 Z M 113.78125 56.378906 "/>
<path style=" stroke:none;fill-rule:evenodd;fill:rgb(58.039218%,20.392157%,54.11765%);fill-opacity:1;" d="M 42.46875 38.390625 C 42.378906 38.339844 42.300781 38.289062 42.238281 38.21875 C 42.589844 37.589844 43.328125 37.28125 43.671875 36.671875 C 44.160156 35.78125 43.699219 34.789062 42.75 34.488281 C 42.46875 34.398438 41.878906 34.199219 41.589844 34.320312 C 41.089844 34.519531 41.53125 35.121094 41.730469 35.558594 C 41.910156 35.941406 41.800781 36.191406 41.53125 36.429688 C 41.378906 36.558594 41.269531 36.75 41.101562 36.839844 C 40.851562 36.980469 40.359375 37.039062 40.351562 37.160156 C 40.328125 37.449219 40.320312 37.71875 40.171875 37.988281 C 40.058594 38.300781 40.050781 38.421875 39.75 38.488281 C 39.460938 38.429688 39.160156 38.589844 39.261719 38.78125 C 39.519531 39.238281 39.828125 39.578125 39.679688 39.988281 C 39.339844 40.898438 39.460938 41.949219 39.03125 42.828125 C 38.878906 43.128906 38.628906 43.339844 38.480469 43.628906 C 38.238281 44.078125 38.351562 44.511719 38.28125 45 C 38.089844 46.28125 37.160156 47.300781 36.808594 48.511719 C 36.691406 48.921875 36.871094 48.988281 36.519531 49.261719 C 36.238281 49.480469 35.921875 49.398438 35.789062 49.75 C 35.539062 50.398438 36.980469 51.351562 37.421875 51.671875 C 38.121094 52.148438 39 52.660156 39.859375 52.761719 C 40.03125 52.78125 40.191406 52.789062 40.351562 52.789062 C 39.929688 52.300781 39.519531 51.808594 39.101562 51.320312 C 38.871094 51.050781 38.628906 50.769531 38.519531 50.429688 C 38.199219 49.5 38.929688 48.5 39.78125 48.011719 C 40.628906 47.511719 41.640625 47.308594 42.46875 46.78125 C 43.019531 46.429688 43.480469 45.941406 43.921875 45.460938 C 45.398438 43.820312 46.761719 42.070312 48 40.238281 C 48.441406 39.589844 48.980469 38.679688 48.589844 37.898438 C 47.460938 37.960938 46.390625 38.261719 45.28125 38.429688 C 44.640625 38.53125 43.199219 38.789062 42.5 38.429688 Z M 42.46875 38.390625 "/>
<path style=" stroke:none;fill-rule:evenodd;fill:rgb(31.37255%,67.843139%,18.82353%);fill-opacity:1;" d="M 36.941406 4.660156 C 35.398438 5.191406 34.078125 6.710938 34.359375 8.308594 C 34.601562 9.671875 35.898438 10.960938 35.339844 12.230469 C 34.96875 13.058594 33.988281 13.359375 33.210938 13.828125 C 32.019531 14.539062 31.191406 15.769531 29.949219 16.398438 C 29.511719 16.621094 29.03125 16.769531 28.621094 17.03125 C 28.121094 17.339844 27.730469 17.800781 27.351562 18.25 C 25.738281 20.179688 24.019531 22.46875 24.460938 24.941406 C 23.78125 25.28125 22.910156 24.898438 22.46875 24.28125 C 22.03125 23.660156 21.929688 22.859375 21.898438 22.101562 C 21.71875 18.359375 22.789062 14.558594 24.898438 11.460938 C 25.550781 10.511719 26.300781 9.609375 26.691406 8.53125 C 27.050781 7.550781 27.101562 6.441406 27.621094 5.53125 C 28.101562 4.691406 28.941406 4.109375 29.789062 3.660156 C 31.25 2.890625 32.75 2.558594 34.351562 2.261719 C 35.628906 2.019531 37.089844 1.71875 38.25 2.570312 C 38.75 2.941406 38.980469 3.488281 38.691406 4.070312 C 38.269531 4.921875 37.671875 4.410156 36.941406 4.660156 Z M 36.941406 4.660156 "/>
<path style=" stroke:none;fill-rule:evenodd;fill:rgb(89.019608%,0%,17.254902%);fill-opacity:1;" d="M 38.621094 54.710938 C 37.578125 54.410156 36.640625 53.980469 36 53.109375 C 35.949219 53.050781 35.910156 52.980469 35.871094 52.910156 C 35.808594 52.851562 35.71875 52.800781 35.601562 52.769531 C 35.570312 52.769531 35.539062 52.78125 35.511719 52.78125 C 35.421875 52.78125 35.328125 52.769531 35.238281 52.761719 C 35.199219 52.761719 35.160156 52.761719 35.121094 52.761719 C 35.050781 52.761719 34.980469 52.78125 34.910156 52.789062 C 34.710938 52.800781 34.480469 53.039062 34.339844 53.179688 C 34.25 53.261719 34.171875 53.359375 34.078125 53.441406 C 34.011719 53.5 33.921875 53.511719 33.851562 53.570312 C 33.730469 53.660156 33.609375 53.789062 33.539062 53.941406 C 33.460938 54.101562 33.410156 54.289062 33.339844 54.460938 C 33.269531 54.640625 33.140625 54.78125 33.070312 54.949219 C 32.988281 55.128906 32.941406 55.289062 32.769531 55.078125 C 32.699219 54.988281 32.589844 54.859375 32.46875 54.949219 C 32.398438 55 32.359375 55.121094 32.378906 55.210938 C 32.46875 55.800781 32.03125 56.238281 32.089844 56.851562 C 32.128906 57.21875 31.78125 57.648438 31.558594 58.019531 C 31.191406 58.671875 30.601562 59.328125 29.980469 59.710938 C 29.78125 59.828125 29.53125 59.808594 29.371094 59.929688 C 29.101562 60.128906 29.179688 60.429688 29 60.628906 C 28.800781 60.851562 28.449219 60.800781 28.191406 60.808594 C 27.789062 60.820312 26.890625 60.71875 26.949219 61.421875 C 26.96875 61.660156 27.28125 61.71875 27.371094 61.960938 C 27.5 62.28125 27.328125 62.660156 27.371094 63.019531 C 27.46875 63.859375 28.140625 64.550781 28.941406 64.53125 C 29.800781 64.511719 30.679688 64.480469 31.5 64.199219 C 32.871094 63.738281 33.96875 62.621094 34.898438 61.429688 C 35.828125 60.238281 36.648438 58.949219 37.738281 57.929688 C 38.550781 57.171875 40.621094 55.289062 38.621094 54.710938 Z M 38.621094 54.710938 "/>
<path style=" stroke:none;fill-rule:evenodd;fill:rgb(100%,79.607844%,0%);fill-opacity:1;" d="M 39.328125 21.371094 C 39.410156 21.378906 39.5 21.371094 39.589844 21.320312 C 39.921875 21.148438 39.851562 20.800781 39.828125 20.480469 C 39.808594 20.070312 39.691406 19.808594 39.230469 19.839844 C 39 19.859375 38.648438 20.050781 38.449219 20.140625 C 38.058594 20.320312 37.691406 20.398438 37.289062 20.5 C 36.960938 20.578125 36.628906 20.808594 36.269531 20.75 C 36.199219 20.738281 36.050781 20.859375 36.019531 20.949219 C 35.851562 21.449219 35.5 21.628906 35 21.710938 C 34.648438 21.769531 34.351562 22.050781 34.011719 22.171875 C 33.699219 22.28125 33.359375 22.339844 33.039062 22.351562 C 32.769531 22.351562 32.601562 22.101562 32.640625 21.839844 C 32.351562 22.128906 32.011719 22.390625 31.628906 22.691406 C 31.011719 23.171875 31.238281 23.878906 31.46875 24.539062 C 31.601562 24.808594 31.71875 25.089844 31.839844 25.371094 C 31.839844 25.320312 31.851562 25.269531 31.859375 25.21875 C 31.859375 25.148438 32 25.03125 32.039062 25.039062 C 32.140625 25.070312 32.25 25.140625 32.308594 25.230469 C 32.46875 25.480469 32.578125 25.769531 32.78125 25.988281 C 33.011719 26.230469 33.128906 26.480469 33.101562 26.808594 C 33.070312 27.101562 33.128906 27.371094 33.398438 27.53125 C 33.921875 27.851562 34.75 27.230469 35.089844 26.859375 C 35.460938 26.449219 35.398438 26.050781 35.980469 25.851562 C 36.480469 25.679688 36.601562 25.578125 36.679688 25.050781 C 36.738281 24.671875 36.699219 24.289062 36.640625 23.921875 C 36.601562 23.679688 36.5 23.53125 36.671875 23.300781 C 36.828125 23.078125 37.039062 23.03125 37.140625 22.761719 C 37.238281 22.5 37.25 22.179688 37.339844 21.898438 C 37.5 21.410156 37.988281 21.230469 38.441406 21.078125 C 38.78125 20.96875 39.03125 21.320312 39.339844 21.359375 Z M 39.328125 21.371094 "/>
<path style=" stroke:none;fill-rule:evenodd;fill:rgb(0%,40.784314%,70.19608%);fill-opacity:1;" d="M 41.910156 5.539062 C 42.089844 5.648438 42.300781 5.820312 42.269531 6.03125 C 42.269531 6.089844 42.230469 6.148438 42.238281 6.199219 C 42.300781 6.269531 42.351562 6.351562 42.390625 6.429688 C 42.410156 6.449219 42.429688 6.460938 42.449219 6.480469 C 42.660156 6.671875 42.75 6.960938 42.820312 7.238281 C 42.910156 7.570312 42.988281 7.910156 42.960938 8.25 C 42.949219 8.378906 42.921875 8.5 42.929688 8.628906 C 42.96875 9.089844 43.480469 9.339844 43.730469 9.730469 C 43.75 9.769531 43.769531 9.800781 43.78125 9.851562 C 43.800781 10.039062 43.46875 10.148438 43.53125 10.328125 C 43.558594 10.398438 43.628906 10.441406 43.679688 10.5 C 43.859375 10.730469 43.5 11.058594 43.601562 11.328125 C 43.640625 11.429688 43.738281 11.5 43.769531 11.601562 C 43.859375 11.851562 43.53125 12.039062 43.449219 12.289062 C 43.390625 12.480469 43.480469 12.691406 43.449219 12.890625 C 43.390625 13.269531 42.941406 13.449219 42.558594 13.5 C 42.179688 13.539062 41.738281 13.550781 41.46875 13.828125 C 41.441406 13.859375 41.410156 13.910156 41.390625 13.941406 C 42.648438 14.460938 43.941406 15.128906 44.480469 16.359375 C 44.628906 16.710938 44.71875 17.089844 44.871094 17.449219 C 44.890625 17.46875 44.910156 17.5 44.929688 17.519531 C 45.089844 17.71875 45.261719 17.929688 45.351562 18.160156 C 46.171875 18.859375 47.558594 18.289062 48.101562 17.339844 C 48.648438 16.371094 48.621094 15.191406 48.75 14.078125 C 48.789062 13.710938 48.859375 13.320312 49.089844 13.011719 C 49.378906 12.609375 49.878906 12.429688 50.28125 12.140625 C 51.710938 11.140625 51.820312 9.070312 51.601562 7.339844 C 51.480469 6.421875 51.308594 5.480469 50.859375 4.660156 C 49.878906 2.898438 47.828125 2.070312 45.929688 1.378906 C 44.871094 0.988281 43.640625 0.609375 42.660156 1.179688 C 41.351562 1.929688 41.269531 3.679688 41.46875 5.289062 C 41.621094 5.371094 41.769531 5.460938 41.910156 5.550781 Z M 41.910156 5.539062 "/>
<path style=" stroke:none;fill-rule:evenodd;fill:rgb(0%,72.941178%,92.941177%);fill-opacity:1;" d="M 54.898438 19.671875 C 54.808594 18.628906 54.71875 17.589844 54.628906 16.539062 C 54.570312 15.851562 54.601562 13.179688 53.648438 13.109375 C 53.601562 13.109375 53.558594 13.109375 53.519531 13.121094 C 53.398438 13.238281 53.289062 13.359375 53.191406 13.488281 C 52.960938 13.828125 52.769531 14.230469 52.761719 14.648438 C 52.691406 17.199219 51.898438 20.828125 50.378906 22.679688 C 50.199219 22.898438 50.210938 23.308594 49.960938 23.441406 C 49.859375 23.488281 49.75 23.5 49.640625 23.511719 C 49.019531 23.53125 48.511719 23.328125 47.941406 23.109375 C 47.71875 23.351562 47.308594 23.320312 47.078125 23.550781 C 46.949219 23.671875 46.890625 23.859375 46.78125 24 C 46.550781 24.289062 46.148438 24.351562 45.800781 24.460938 C 44.980469 24.71875 43.578125 25.828125 43.878906 26.851562 C 43.929688 27.011719 43.988281 27.230469 43.839844 27.289062 C 43.769531 27.320312 43.699219 27.289062 43.621094 27.300781 C 43.511719 27.308594 43.441406 27.398438 43.390625 27.5 C 43.390625 27.53125 43.398438 27.558594 43.410156 27.589844 C 43.378906 27.609375 43.359375 27.628906 43.328125 27.648438 C 43.308594 27.71875 43.28125 27.789062 43.25 27.851562 C 43.140625 28.078125 42.890625 28.21875 42.640625 28.21875 C 42.601562 28.269531 42.558594 28.328125 42.53125 28.378906 C 42.570312 28.441406 42.601562 28.488281 42.628906 28.550781 C 43.320312 28.851562 44.050781 29.070312 44.789062 29.210938 C 45.710938 29.378906 47.660156 31.078125 48.570312 31.300781 C 51.761719 32.050781 52.128906 34.398438 52.75 34.640625 C 53.308594 34.859375 53.96875 34.539062 54.328125 34.058594 C 54.691406 33.570312 54.820312 32.960938 54.921875 32.359375 C 55.601562 28.171875 55.238281 23.890625 54.878906 19.660156 Z M 54.898438 19.671875 "/>
<path style=" stroke:none;fill-rule:evenodd;fill:rgb(93.333334%,48.627451%,0%);fill-opacity:1;" d="M 28.828125 52.839844 C 29.019531 52.628906 29.199219 52.351562 29.371094 52.179688 C 29.660156 51.890625 29.929688 51.589844 30.21875 51.320312 C 31.039062 50.578125 31.78125 49.269531 31.890625 48.148438 C 32 47 32.019531 45.648438 30.898438 45 C 30.261719 44.628906 29.480469 44.789062 28.808594 44.511719 C 28.441406 44.359375 28 44.101562 27.808594 43.738281 C 27.679688 43.5 27.691406 43.160156 27.910156 43 C 28.019531 42.910156 28.179688 42.890625 28.28125 42.789062 C 28.359375 42.710938 28.398438 42.609375 28.441406 42.5 C 28.679688 41.851562 28.378906 40.789062 28.859375 40.328125 C 29.488281 39.738281 29.359375 38.859375 29.441406 38.089844 C 29.511719 37.351562 30.011719 36.691406 30.25 36 C 30.578125 35.039062 30.738281 33.960938 30.910156 32.960938 C 30.949219 32.71875 30.988281 32.480469 30.960938 32.238281 C 30.929688 32.019531 30.851562 31.820312 30.828125 31.601562 C 30.769531 31.019531 31.121094 30.398438 30.859375 29.878906 C 30.738281 29.648438 30.519531 29.488281 30.351562 29.300781 C 30.039062 28.949219 30.238281 28.53125 29.96875 28.179688 C 29.710938 27.839844 29.28125 27.710938 28.949219 27.460938 C 28.460938 27.089844 27.808594 26.761719 27.191406 26.738281 C 25.859375 26.699219 25.601562 28.929688 25.320312 29.929688 C 25.050781 30.910156 24.199219 31.609375 23.691406 32.46875 C 23.171875 33.339844 22.878906 34.320312 22.671875 35.308594 C 22.320312 36.960938 22.148438 38.671875 22.378906 40.339844 C 22.539062 41.519531 22.898438 42.691406 22.851562 43.878906 C 22.769531 45.53125 21.921875 47.03125 21.199219 48.519531 C 20.351562 50.28125 19.660156 52.140625 19.449219 54.078125 C 19.320312 55.289062 19.378906 56.519531 19.128906 57.710938 C 18.980469 58.441406 18.710938 59.140625 18.570312 59.871094 C 18.429688 60.609375 18.429688 61.371094 18.429688 62.121094 C 18.429688 63.238281 18.429688 64.371094 18.421875 65.488281 L 18.421875 65.570312 C 18.421875 65.570312 18.421875 65.648438 18.421875 65.648438 C 18.421875 66.421875 18.449219 67.210938 18.851562 67.859375 C 19.339844 68.660156 20.300781 69.070312 21.238281 69.128906 C 22.171875 69.191406 23.101562 68.949219 24 68.710938 C 24.199219 68.660156 24.441406 68.570312 24.480469 68.371094 C 24.5 68.269531 24.480469 68.160156 24.441406 68.058594 C 24.011719 66.808594 23.351562 65.640625 22.511719 64.621094 C 22.058594 64.078125 21.710938 63.601562 21.429688 62.949219 C 21.148438 62.308594 21.421875 62.03125 21.769531 61.449219 C 22.160156 60.820312 22.53125 60.179688 22.898438 59.539062 C 23 59.371094 23.101562 59.199219 23.238281 59.058594 C 23.460938 58.839844 23.78125 58.730469 23.980469 58.480469 C 24.128906 58.289062 24.191406 58.039062 24.308594 57.828125 C 24.5 57.449219 24.890625 57.46875 25.140625 57.171875 C 25.421875 56.851562 25.46875 56.359375 25.679688 56 C 25.949219 55.519531 26.28125 54.839844 26.78125 54.570312 C 26.910156 54.5 27.050781 54.449219 27.128906 54.320312 C 27.191406 54.21875 27.199219 54.101562 27.21875 53.980469 C 27.398438 53.03125 28.128906 53.371094 28.640625 53.050781 C 28.710938 53 28.789062 52.929688 28.859375 52.851562 Z M 28.828125 52.839844 "/>
<path style=" stroke:none;fill-rule:nonzero;fill:rgb(0%,48.235294%,75.686276%);fill-opacity:1;" d="M 57.96875 60.488281 L 131.601562 60.488281 L 131.601562 60.710938 L 57.96875 60.710938 Z M 57.96875 60.488281 "/>
</g>
</svg>
